<?xml version="1.0" encoding="utf-8"?>
<!-- Generator: Adobe Illustrator 23.0.1, SVG Export Plug-In . SVG Version: 6.00 Build 0)  -->
<svg version="1.1" id="Layer_1" xmlns="http://www.w3.org/2000/svg" xmlns:xlink="http://www.w3.org/1999/xlink" x="0px" y="0px"
	 viewBox="0 0 1200 1200" style="enable-background:new 0 0 1200 1200;" xml:space="preserve">
<style type="text/css">
	.st0{fill:#FFFFFF;}
	.st1{clip-path:url(#SVGID_2_);fill:#FFFFFF;}
</style>
<g>
	<g>
		<path class="st0" d="M253.05,662.19c-9.92-10.27-15.23-24.47-15.94-42.59c-0.14-3.85-0.21-10.13-0.21-18.83
			c0-8.84,0.07-15.27,0.21-19.26c0.71-17.98,6.06-32.14,16.05-42.48c9.99-10.34,24.47-15.51,43.45-15.51
			c12.7,0,23.47,2.25,32.32,6.74c8.84,4.5,15.55,10.38,20.12,17.66c4.56,7.28,7.06,15.05,7.49,23.33v0.43
			c0,1.14-0.46,2.11-1.39,2.89c-0.93,0.79-1.96,1.18-3.1,1.18h-11.77c-2.86,0-4.64-1.64-5.35-4.92
			c-2.43-10.7-6.78-18.23-13.05-22.58c-6.28-4.35-14.7-6.53-25.25-6.53c-24.54,0-37.24,13.63-38.09,40.88
			c-0.14,3.85-0.21,9.77-0.21,17.76c0,7.99,0.07,14.05,0.21,18.19c0.86,27.25,13.55,40.88,38.09,40.88
			c10.56,0,19.01-2.17,25.36-6.53c6.35-4.35,10.66-11.88,12.95-22.58c0.43-1.85,1.07-3.13,1.93-3.85c0.86-0.71,2-1.07,3.42-1.07
			h11.77c1.28,0,2.39,0.4,3.32,1.18c0.93,0.79,1.32,1.82,1.18,3.1c-0.43,8.42-2.93,16.27-7.49,23.54
			c-4.57,7.28-11.27,13.16-20.12,17.66c-8.85,4.5-19.62,6.74-32.32,6.74C277.48,677.6,262.97,672.46,253.05,662.19z"/>
		<path class="st0" d="M382.34,662.93c-10.2-9.77-15.59-24.5-16.16-44.19c-0.14-4.28-0.21-10.34-0.21-18.19
			c0-7.84,0.07-13.84,0.21-17.98c0.57-19.26,6.13-33.92,16.69-43.98c10.56-10.06,24.83-15.09,42.8-15.09
			c17.83,0,32.03,5.03,42.59,15.09c10.56,10.06,16.12,24.72,16.69,43.98c0.28,8.28,0.43,14.27,0.43,17.98
			c0,3.57-0.14,9.63-0.43,18.19c-0.57,19.69-5.96,34.42-16.16,44.19c-10.2,9.77-24.58,14.66-43.12,14.66
			C406.99,677.6,392.54,672.71,382.34,662.93z M452.65,649.13c6.7-6.85,10.34-17.33,10.92-31.46c0.28-8.56,0.43-14.27,0.43-17.12
			c0-3.13-0.14-8.84-0.43-17.12c-0.57-14.12-4.25-24.61-11.02-31.46c-6.78-6.85-15.73-10.27-26.86-10.27
			c-11.27,0-20.3,3.42-27.07,10.27c-6.78,6.85-10.45,17.33-11.02,31.46c-0.14,4.14-0.21,9.84-0.21,17.12
			c0,7.14,0.07,12.84,0.21,17.12c0.57,14.12,4.24,24.61,11.02,31.46c6.77,6.85,15.8,10.27,27.07,10.27
			C436.95,659.4,445.94,655.98,452.65,649.13z"/>
		<path class="st0" d="M504.62,676.16c-0.96-0.96-1.44-2.18-1.44-3.66V527.72c0-1.62,0.48-2.92,1.44-3.88
			c0.96-0.96,2.18-1.44,3.66-1.44h11.08c2.36,0,4.29,1.18,5.77,3.55l46.78,89.57l47.22-89.57c0.29-0.89,0.92-1.7,1.88-2.44
			c0.96-0.74,2.18-1.11,3.66-1.11h10.86c1.62,0,2.92,0.48,3.88,1.44c0.96,0.96,1.44,2.26,1.44,3.88v144.77
			c0,1.48-0.52,2.7-1.55,3.66c-1.04,0.96-2.29,1.44-3.77,1.44h-10.86c-1.48,0-2.7-0.48-3.66-1.44c-0.96-0.96-1.44-2.18-1.44-3.66
			V563.42l-37.02,72.27c-1.48,3.11-3.85,4.65-7.1,4.65h-6.87c-3.25,0-5.62-1.55-7.1-4.65l-37.25-72.27v109.08
			c0,1.48-0.48,2.7-1.44,3.66c-0.96,0.96-2.18,1.44-3.66,1.44h-10.86C506.8,677.6,505.58,677.12,504.62,676.16z"/>
		<path class="st0" d="M666.72,676.16c-0.96-0.96-1.44-2.18-1.44-3.66V527.72c0-1.62,0.48-2.92,1.44-3.88
			c0.96-0.96,2.18-1.44,3.66-1.44h56.31c16.7,0,29.85,4.07,39.46,12.19c9.61,8.13,14.41,19.88,14.41,35.25
			c0,15.37-4.77,27.09-14.3,35.14c-9.53,8.06-22.72,12.08-39.57,12.08h-39.24v55.42c0,1.48-0.52,2.7-1.55,3.66
			c-1.03,0.96-2.29,1.44-3.77,1.44h-11.75C668.89,677.6,667.67,677.12,666.72,676.16z M725.58,598.45c10.79,0,18.95-2.44,24.5-7.32
			c5.54-4.88,8.31-11.97,8.31-21.28c0-9.31-2.74-16.44-8.2-21.39c-5.47-4.95-13.67-7.43-24.61-7.43h-38.35v57.42H725.58z"/>
		<path class="st0" d="M829.03,676.16c-0.96-0.96-1.44-2.18-1.44-3.66V542.13h-42.57c-1.48,0-2.7-0.48-3.66-1.44
			c-0.96-0.96-1.44-2.18-1.44-3.66v-9.31c0-1.48,0.48-2.73,1.44-3.77c0.96-1.03,2.18-1.55,3.66-1.55h106.86
			c1.62,0,2.92,0.48,3.88,1.44c0.96,0.96,1.44,2.26,1.44,3.88v9.31c0,1.48-0.52,2.7-1.55,3.66c-1.04,0.96-2.29,1.44-3.77,1.44
			h-42.35v130.36c0,1.48-0.52,2.7-1.55,3.66c-1.04,0.96-2.29,1.44-3.77,1.44h-11.53C831.21,677.6,829.99,677.12,829.03,676.16z"/>
		<path class="st0" d="M878.17,676.27c-0.89-0.89-1.33-1.92-1.33-3.11c0-1.18,0.07-1.99,0.22-2.44l54.98-143.44
			c1.18-3.25,3.55-4.88,7.09-4.88h15.08c3.55,0,5.91,1.63,7.1,4.88l54.76,143.44l0.44,2.44c0,1.18-0.44,2.22-1.33,3.11
			c-0.89,0.89-1.92,1.33-3.1,1.33h-11.31c-1.63,0-2.88-0.41-3.77-1.22c-0.89-0.81-1.48-1.66-1.77-2.55l-12.19-31.48h-72.72
			l-12.19,31.48c-0.3,0.89-0.92,1.74-1.88,2.55c-0.96,0.81-2.18,1.22-3.66,1.22h-11.31C880.09,677.6,879.06,677.15,878.17,676.27z
			 M976.61,623.28l-29.93-78.7l-29.93,78.7H976.61z"/>
		<path class="st0" d="M1045.26,676.16c-0.96-0.96-1.44-2.18-1.44-3.66V542.13h-42.57c-1.48,0-2.7-0.48-3.66-1.44
			c-0.96-0.96-1.44-2.18-1.44-3.66v-9.31c0-1.48,0.48-2.73,1.44-3.77c0.96-1.03,2.18-1.55,3.66-1.55h106.86
			c1.62,0,2.92,0.48,3.88,1.44c0.96,0.96,1.44,2.26,1.44,3.88v9.31c0,1.48-0.52,2.7-1.55,3.66c-1.04,0.96-2.29,1.44-3.77,1.44
			h-42.35v130.36c0,1.48-0.52,2.7-1.55,3.66c-1.04,0.96-2.29,1.44-3.77,1.44h-11.53C1047.44,677.6,1046.22,677.12,1045.26,676.16z"
			/>
	</g>
	<g>
		<defs>
			<path id="SVGID_1_" d="M203.9,677.29H97.61c-6.07,0-11.04-4.97-11.04-11.04v-132.8c0-6.07,4.97-11.04,11.04-11.04H203.9
				c6.07,0,11.04,4.97,11.04,11.04v132.8C214.95,672.32,209.98,677.29,203.9,677.29z"/>
		</defs>
		<clipPath id="SVGID_2_">
			<use xlink:href="#SVGID_1_"  style="overflow:visible;"/>
		</clipPath>
		<path class="st1" d="M81.53,628.7c3.56-1.16,5.87,0.43,8.28,1.36c14.73,5.69,29.48,11.34,44.06,17.27
			c4.31,1.75,7.52,1.57,11.69-0.49c38.09-18.83,76.34-37.45,114.67-56.2c0.43,2.12-1.65,2.69-2.89,3.58
			c-37.73,27.09-75.58,54.07-113.16,81.29c-4.05,2.93-5.73,1.93-8.69-0.63C117.69,659.49,99.73,644.24,81.53,628.7z"/>
		<path class="st1" d="M214.88,524.82c0.03-4.09-1.69-5.12-6.54-5.1c-40.07,0.13-80.14,0.15-120.2,0c-5.25-0.02-6.99,1.1-6.9,5.47
			c0.32,15.02,0.12,30.05,0.12,45.07c-0.01,0-0.02,0-0.03,0c0,15.24,0.12,30.48-0.09,45.72c-0.05,3.48,1.14,5.49,5.27,7.04
			c4.13,1.55,8.26,3.1,12.39,4.67v-30.01h19.98v37.76c2.22,0.88,4.44,1.76,6.66,2.64v-79.12h19.98v82.1
			c2.21-1.1,4.44-2.18,6.66-3.28V583.5h19.98v44.43c2.22-1.09,4.44-2.18,6.66-3.27V549.5h19.98v65.46
			c3.58-1.74,7.16-3.49,10.74-5.22c3.58-1.73,5.38-3.6,5.36-7.2C214.69,576.64,214.68,550.73,214.88,524.82z"/>
	</g>
</g>
</svg>
