<?xml version="1.0" encoding="utf-8"?>
<!-- Generator: Adobe Illustrator 25.4.1, SVG Export Plug-In . SVG Version: 6.00 Build 0)  -->
<svg version="1.1" id="Layer_1" xmlns="http://www.w3.org/2000/svg" xmlns:xlink="http://www.w3.org/1999/xlink" x="0px" y="0px"
	 viewBox="0 0 569.4 208.1" style="enable-background:new 0 0 569.4 208.1;" xml:space="preserve">
<style type="text/css">
	.st0{fill:#4B41D9;}
	.st1{fill:#FFFFFF;}
	.st2{enable-background:new    ;}
	.st3{opacity:9.900000e-02;fill:none;stroke:#000000;stroke-width:0.5;stroke-miterlimit:10;enable-background:new    ;}
	.st4{fill:#0A51DF;}
	.st5{opacity:0.18;}
	.st6{fill:#727272;}
	.st7{fill:#0AE8C8;}
	.st8{fill:#A2A2A2;}
	.st9{fill:#4B4B4B;}
	.st10{opacity:9.900000e-02;fill:none;stroke:#000000;stroke-width:0.3746;stroke-miterlimit:10;enable-background:new    ;}
	.st11{fill:#EAEAEA;}
	.st12{fill:none;stroke:#A0A0A0;stroke-miterlimit:10;}
	.st13{fill:none;stroke:#A0A0A0;stroke-miterlimit:10;stroke-dasharray:10.6568,10.6568;}
	.st14{fill:none;stroke:#A0A0A0;stroke-width:0.7737;stroke-miterlimit:10;}
	.st15{fill:none;stroke:#A0A0A0;stroke-width:0.7737;stroke-miterlimit:10;stroke-dasharray:4.6291,4.6291;}
	.st16{fill:none;stroke:#A0A0A0;stroke-width:0.7737;stroke-miterlimit:10;stroke-dasharray:4.9235,4.9235;}
	.st17{fill:none;stroke:#A0A0A0;stroke-miterlimit:10;stroke-dasharray:6;}
	.st18{fill:#606060;}
	.st19{fill:#939393;}
	.st20{fill:none;stroke:#939393;stroke-width:0.3;stroke-miterlimit:10;}
	.st21{fill:#F9F9F9;enable-background:new    ;}
	.st22{opacity:9.900000e-02;fill:none;stroke:#000000;stroke-width:0.3484;stroke-miterlimit:10;enable-background:new    ;}
	.st23{fill:none;stroke:#000000;stroke-width:0.3462;stroke-miterlimit:10;}
	.st24{fill:none;stroke:#000000;stroke-width:0.2596;stroke-miterlimit:10;}
	.st25{fill:none;stroke:#000000;stroke-width:0.1934;stroke-miterlimit:10;}
	.st26{fill:none;stroke:#000000;stroke-width:0.5766;stroke-miterlimit:10;}
	.st27{fill:#F2F2F2;}
	.st28{clip-path:url(#SVGID_00000115478256798931889750000000239706041508125593_);}
	.st29{opacity:0.23;}
	.st30{opacity:0.41;}
	.st31{fill:none;stroke:#000000;stroke-width:0.2089;stroke-miterlimit:10;}
	.st32{fill:none;stroke:#FFFFFF;stroke-width:0.2089;stroke-miterlimit:10;}
	.st33{fill:none;stroke:#000000;stroke-width:0.2222;stroke-miterlimit:10;}
	.st34{fill:#F9F9F9;}
	.st35{fill:none;stroke:#000000;stroke-width:0.1741;stroke-miterlimit:10;}
	.st36{fill:#0E7C4D;}
	.st37{fill:#C136B0;}
	.st38{fill:#92C73E;}
	.st39{fill:#4B41D9;stroke:#4B41D9;stroke-miterlimit:10;}
	.st40{stroke:#000000;stroke-miterlimit:10;}
	.st41{stroke:#FFFFFF;stroke-miterlimit:10;}
	.st42{fill:#FFFFFF;stroke:#FFFFFF;stroke-miterlimit:10;}
	.st43{fill:#FFFFFF;stroke:#4B41D9;stroke-miterlimit:10;}
	.st44{fill:#FFFFFF;stroke:#000000;stroke-miterlimit:10;}
	.st45{opacity:8.000000e-02;clip-path:url(#SVGID_00000183935861857435069750000005780358161117650062_);}
	.st46{opacity:8.000000e-02;clip-path:url(#SVGID_00000183234141054420218170000016537757838971913355_);}
</style>
<g>
	<g>
		<polygon class="st1" points="135.4,130.1 145.7,130.1 145.7,115.7 163.4,115.7 163.4,107.6 145.7,107.6 145.7,98.6 164.9,98.6 
			165,90.4 135.4,90.4 		"/>
		<path class="st1" d="M199.7,115.2c2.9-2.6,4.3-6.2,4.3-10.8c0-4.4-1.4-7.8-4.3-10.3c-2.9-2.4-6.9-3.6-12.2-3.6h-17.8v39.6H180v-11
			h7.5c0.1,0,0.1,0,0.2,0l5.8,11h11.7l-8.3-13C197.9,116.5,198.8,115.9,199.7,115.2z M180,98.6h7.5c2.1,0,3.7,0.5,4.9,1.5
			s1.8,2.5,1.8,4.5c0,2.1-0.6,3.6-1.8,4.7s-2.8,1.6-4.9,1.6H180V98.6z"/>
		<polygon class="st1" points="220.9,114.2 239.8,114.2 239.8,106.2 220.9,106.2 220.9,98.6 241.8,98.6 241.8,90.4 210.6,90.4 
			210.6,130.1 242.4,130.1 242.4,121.9 220.9,121.9 		"/>
		<rect x="248.7" y="90.4" class="st1" width="10.3" height="39.6"/>
		<path class="st1" d="M278,101.9c1-1.1,2.2-1.9,3.6-2.5c1.4-0.6,2.8-0.9,4.5-0.9c1.8,0,3.7,0.4,5.6,1.2s3.5,1.9,4.9,3.3l5.9-7.1
			c-1.4-1.2-2.9-2.3-4.7-3.2c-1.8-0.9-3.7-1.5-5.7-2s-3.9-0.7-5.9-0.7c-3.1,0-6,0.5-8.7,1.5c-2.7,1-5,2.4-7,4.3
			c-2,1.8-3.5,4-4.6,6.5s-1.6,5.2-1.6,8.1s0.5,5.6,1.6,8.1s2.5,4.7,4.5,6.6c1.9,1.8,4.2,3.3,6.8,4.3s5.4,1.6,8.4,1.6
			c1.8,0,3.8-0.2,5.8-0.7s4-1.1,5.8-1.9c1.9-0.8,3.5-1.7,4.9-2.7v-15.8h-8.9v10.3c-0.6,0.3-1.3,0.6-2,0.9c-1.8,0.7-3.5,1-4.9,1
			c-1.6,0-3.1-0.3-4.5-0.9s-2.6-1.4-3.6-2.5s-1.8-2.3-2.4-3.8c-0.6-1.4-0.8-3-0.8-4.7c0-1.7,0.3-3.2,0.8-4.6
			C276.2,104.2,277,102.9,278,101.9z"/>
		<polygon class="st1" points="335.1,106.7 319.1,106.7 319.1,90.4 308.8,90.4 308.8,130.1 319.1,130.1 319.1,114.8 335.1,114.8 
			335.1,130.1 345.4,130.1 345.4,90.4 335.1,90.4 		"/>
		<polygon class="st1" points="349.7,98.8 361.4,98.8 361.4,130.1 371.8,130.1 371.8,98.8 383.6,98.8 383.6,90.4 349.7,90.4 		"/>
		<path class="st1" d="M414.9,109.7c-1.2-0.9-2.6-1.6-4.1-2.2c-1.5-0.6-3-1.1-4.5-1.5s-2.9-0.8-4.1-1.2s-2.2-0.9-3-1.6
			c-0.7-0.6-1.1-1.4-1.1-2.4s0.4-1.7,1.1-2.2c0.8-0.5,1.8-0.7,3-0.7c1.1,0,2.4,0.2,3.8,0.5c1.4,0.4,3,0.8,4.5,1.5
			c1.6,0.6,3,1.4,4.4,2.2l3.9-8.1c-2.1-1.3-4.5-2.4-7.3-3.2c-2.8-0.8-5.6-1.2-8.5-1.2c-3.2,0-5.9,0.5-8.3,1.5s-4.2,2.4-5.5,4.2
			c-1.3,1.8-2,4-2,6.4c0,2,0.4,3.7,1.1,5.1s1.7,2.5,3,3.3c1.2,0.8,2.6,1.5,4.1,2.1c1.5,0.5,3,1,4.5,1.4s2.9,0.8,4.1,1.2
			s2.2,0.9,3,1.6c0.8,0.6,1.1,1.4,1.1,2.4c0,1.1-0.4,2-1.3,2.6s-2.1,0.9-3.6,0.9c-1.4,0-2.9-0.3-4.6-0.8s-3.4-1.2-5.1-2.1
			c-1.7-0.9-3.2-2-4.6-3.2l-4,8c1.6,1.3,3.4,2.5,5.3,3.4c2,1,4.1,1.7,6.3,2.2c2.2,0.5,4.4,0.8,6.6,0.8c2.9,0,5.6-0.5,8-1.4
			c2.4-0.9,4.3-2.3,5.8-4.1c1.4-1.8,2.1-4.1,2.1-6.8c0-2.1-0.4-3.8-1.1-5.2C417.2,111.8,416.2,110.6,414.9,109.7z"/>
		<path class="st1" d="M449.3,113.7c0,2.6-0.7,4.6-2.1,6.1s-3.2,2.2-5.4,2.2c-2.2,0-4.1-0.8-5.6-2.3s-2.2-3.5-2.2-6.1V90.4h-10.3
			v23.3c0,3.5,0.7,6.5,2.2,9c1.5,2.6,3.6,4.5,6.3,5.9c2.7,1.4,5.9,2.1,9.6,2.1s6.8-0.7,9.5-2.1c2.7-1.4,4.7-3.4,6.2-5.9
			c1.4-2.6,2.2-5.6,2.2-9V90.4h-10.3v23.3H449.3z"/>
		<path class="st1" d="M496.7,115.2c2.9-2.6,4.3-6.2,4.3-10.8c0-4.4-1.4-7.8-4.3-10.3c-2.9-2.4-6.9-3.6-12.2-3.6h-17.8v39.6H477v-11
			h7.5c0.1,0,0.1,0,0.2,0l5.8,11h11.7l-8.3-13C494.9,116.5,495.8,115.9,496.7,115.2z M477,98.6h7.5c2.1,0,3.7,0.5,4.9,1.5
			c1.2,1,1.8,2.5,1.8,4.5c0,2.1-0.6,3.6-1.8,4.7c-1.2,1.1-2.8,1.6-4.9,1.6H477V98.6z"/>
		<polygon class="st1" points="517.9,121.9 517.9,114.2 536.8,114.2 536.8,106.2 517.9,106.2 517.9,98.6 538.8,98.6 538.8,90.4 
			507.6,90.4 507.6,130.1 539.4,130.1 539.4,121.9 		"/>
	</g>
	<path class="st0" d="M83.4,144H54.1c-5.9,0-10.6-4.7-10.6-10.6v-36c0-5.9,4.7-10.6,10.6-10.6h29.3c5.9,0,10.6,4.7,10.6,10.6v36
		C94,139.2,89.2,144,83.4,144z"/>
	<g>
		<path class="st42" d="M67.5,156.3c-1,0-2-0.2-2.8-0.6c-7.8-3.6-14.2-7.8-19.5-13c-5.7-5.6-9.8-12.1-12-19.1
			c-0.9-3.2-1.4-6.2-1.4-9.2c0-3.2,0-6.3,0-9.5v-4v-3.6c0-3.9,0-7.7,0-11.6c0-3.1,1.6-5.5,4.4-6.7l1.1-0.4l60.5,0.1l0.9,0.3
			c2.8,0.9,4.6,3.4,4.6,6.4c0,3.6,0,7.2,0,10.8c0,6.4,0,12.8,0,19.2c0,3.9-1.2,7.4-2.3,10.3c-3.5,9.1-9.6,16.7-18.6,23.1
			c-3.6,2.5-7.5,4.8-11.8,6.8C69.6,156.1,68.6,156.3,67.5,156.3z M43.5,90.4c0,2.3,0,4.6,0,7v3.5v4c0,3.2,0,6.4,0,9.6
			c0,1.7,0.3,3.5,0.9,5.5c1.7,5.3,4.6,9.9,9,14.2c3.8,3.8,8.5,7,14.1,9.8c2.9-1.4,5.6-3,8-4.8c7.1-5,11.8-10.9,14.5-17.8
			c0.7-1.9,1.5-4.1,1.5-6.1c0-6.4,0-12.8,0-19.2c0-1.9,0-3.9,0-5.8L43.5,90.4z"/>
	</g>
	<path class="st43" d="M94,72.4H32.7c-1.5,0-2.7,1.2-2.7,2.7v59.5c0,2.4,2.8,3.6,4.5,2l19.1-17.8c0.5-0.5,0.9-1.2,0.9-2V97.9
		c0-1.5,1.2-2.7,2.7-2.7h20.6c0.8,0,1.5-0.3,2-0.9l16.1-17.4C97.5,75.2,96.3,72.4,94,72.4z"/>
	<path class="st1" d="M65.3,127.7L86,107c1.7-1.7,0.5-4.6-1.9-4.6H63.3c-1.5,0-2.7,1.2-2.7,2.7v20.7
		C60.6,128.2,63.6,129.4,65.3,127.7z"/>
</g>
</svg>
