<svg id="Layer_1" data-name="Layer 1" xmlns="http://www.w3.org/2000/svg" viewBox="0 0 512 122.2"><defs><style>.cls-1{fill:#fff;}.cls-2{fill:#92c73e;}</style></defs><polygon class="cls-1" points="117.2 79.3 127.1 79.3 127.1 65.6 143.9 65.6 143.9 57.9 127.1 57.9 127.1 49.4 145.3 49.4 145.4 41.6 117.2 41.6 117.2 79.3"/><path class="cls-1" d="M178.4,65.1c2.7-2.5,4.1-5.9,4.1-10.3a12.39,12.39,0,0,0-4.1-9.8c-2.7-2.3-6.6-3.5-11.6-3.5H149.9V79.2h9.8V68.8H167l5.5,10.5h11.1l-7.9-12.4A12.71,12.71,0,0,0,178.4,65.1ZM159.7,49.4h7.1a6.8,6.8,0,0,1,4.7,1.5,5.49,5.49,0,0,1,1.7,4.3,5.8,5.8,0,0,1-1.7,4.5,6.8,6.8,0,0,1-4.7,1.5h-7.1Z"/><polygon class="cls-1" points="198.6 64.2 216.5 64.2 216.5 56.6 198.6 56.6 198.6 49.4 218.5 49.4 218.5 41.6 188.8 41.6 188.8 79.3 219 79.3 219 71.6 198.6 71.6 198.6 64.2"/><rect class="cls-1" x="225" y="41.6" width="9.8" height="37.7"/><path class="cls-1" d="M252.9,52.5a11.65,11.65,0,0,1,3.4-2.4,9.9,9.9,0,0,1,4.2-.9,14.37,14.37,0,0,1,5.3,1.1,13.34,13.34,0,0,1,4.6,3.1l5.6-6.8a17.68,17.68,0,0,0-4.5-3,24.7,24.7,0,0,0-5.4-1.9,22,22,0,0,0-5.6-.7,21.76,21.76,0,0,0-8.2,1.5,20.39,20.39,0,0,0-6.6,4.1,19.54,19.54,0,0,0-4.5,21.6,17.91,17.91,0,0,0,4.2,6.2,19.5,19.5,0,0,0,6.4,4.1,21.09,21.09,0,0,0,8,1.5,26.44,26.44,0,0,0,5.5-.6,25.32,25.32,0,0,0,5.5-1.8,28,28,0,0,0,4.6-2.5v-15h-8.5v9.8a10.84,10.84,0,0,1-1.9.8,12.35,12.35,0,0,1-4.6,1,10.36,10.36,0,0,1-4.3-.9,11.65,11.65,0,0,1-3.4-2.4,11.11,11.11,0,0,1-2.3-3.6,12.87,12.87,0,0,1-.8-4.5,12.73,12.73,0,0,1,.8-4.4A21.28,21.28,0,0,1,252.9,52.5Z"/><polygon class="cls-1" points="307.1 57 291.9 57 291.9 41.6 282.1 41.6 282.1 79.3 291.9 79.3 291.9 64.8 307.1 64.8 307.1 79.3 317 79.3 317 41.6 307.1 41.6 307.1 57"/><polygon class="cls-1" points="321 49.6 332.2 49.6 332.2 79.3 342 79.3 342 49.6 353.3 49.6 353.3 41.6 321 41.6 321 49.6"/><path class="cls-1" d="M383.1,60a24.19,24.19,0,0,0-3.9-2.1c-1.4-.5-2.8-1-4.2-1.4s-2.7-.8-3.9-1.2a8.18,8.18,0,0,1-2.8-1.5,2.9,2.9,0,0,1-1-2.3,2.48,2.48,0,0,1,1.1-2.1,4.86,4.86,0,0,1,2.8-.7,18.08,18.08,0,0,1,3.6.5,26.83,26.83,0,0,1,4.3,1.4,27.44,27.44,0,0,1,4.2,2.1L387,45a27.27,27.27,0,0,0-6.9-3.1,28.39,28.39,0,0,0-8.1-1.2,21,21,0,0,0-7.9,1.4,12.06,12.06,0,0,0-5.3,4,10.52,10.52,0,0,0-1.9,6.1,10,10,0,0,0,1,4.8,8.37,8.37,0,0,0,2.8,3.1,17.94,17.94,0,0,0,3.9,2,33.76,33.76,0,0,0,4.2,1.3q2.1.6,3.9,1.2a9.86,9.86,0,0,1,2.9,1.5,3,3,0,0,1,1.1,2.3,2.51,2.51,0,0,1-1.3,2.4,5.87,5.87,0,0,1-3.5.8,14.84,14.84,0,0,1-4.4-.7,33.66,33.66,0,0,1-4.9-2,28.33,28.33,0,0,1-4.4-3l-3.8,7.6a26.29,26.29,0,0,0,5.1,3.3,30.45,30.45,0,0,0,6,2.1,27,27,0,0,0,6.3.7,20.56,20.56,0,0,0,7.6-1.3,13.13,13.13,0,0,0,5.5-3.9,9.8,9.8,0,0,0,2-6.4,10.15,10.15,0,0,0-1.1-4.9A8,8,0,0,0,383.1,60Z"/><path class="cls-1" d="M415.7,63.8a8.16,8.16,0,0,1-2,5.8,6.64,6.64,0,0,1-5.1,2.1,7.24,7.24,0,0,1-5.3-2.1,7.94,7.94,0,0,1-2.1-5.8V41.6h-9.8V63.7a16.86,16.86,0,0,0,2.1,8.6,14.14,14.14,0,0,0,6,5.6,20,20,0,0,0,9.1,2,19.29,19.29,0,0,0,9-2,14.47,14.47,0,0,0,5.9-5.6,16.86,16.86,0,0,0,2.1-8.6V41.6h-9.8V63.8Z"/><path class="cls-1" d="M460.8,65.1c2.7-2.5,4.1-5.9,4.1-10.3a12.39,12.39,0,0,0-4.1-9.8c-2.7-2.3-6.6-3.5-11.6-3.5H432.3V79.2h9.8V68.8h7.3l5.5,10.5H466l-7.9-12.4A12.71,12.71,0,0,0,460.8,65.1ZM442.1,49.4h7.1a6.8,6.8,0,0,1,4.7,1.5,5.49,5.49,0,0,1,1.7,4.3,5.8,5.8,0,0,1-1.7,4.5,6.8,6.8,0,0,1-4.7,1.5h-7.1Z"/><polygon class="cls-1" points="481 71.6 481 64.2 498.9 64.2 498.9 56.6 481 56.6 481 49.4 500.9 49.4 500.9 41.6 471.2 41.6 471.2 79.3 501.4 79.3 501.4 71.6 481 71.6"/><path class="cls-2" d="M91.9,20.5H24.8a4.65,4.65,0,0,0-4.6,4.6V80a8.46,8.46,0,0,0,5.3,7.8L55.3,99.7a8.31,8.31,0,0,0,6.2,0L91.3,87.8A8.46,8.46,0,0,0,96.6,80V25.1A4.74,4.74,0,0,0,91.9,20.5Z"/><path class="cls-1" d="M73.2,32.1H32.8A1.79,1.79,0,0,0,31,33.9V73.2a1.77,1.77,0,0,0,3,1.3L46.6,62.8a1.61,1.61,0,0,0,.6-1.3V49A1.79,1.79,0,0,1,49,47.2H62.6a1.61,1.61,0,0,0,1.3-.6L74.5,35.1A1.77,1.77,0,0,0,73.2,32.1Z"/><path class="cls-1" d="M54.3,68.6,68,55a1.77,1.77,0,0,0-1.3-3H53a1.79,1.79,0,0,0-1.8,1.8V67.5A1.78,1.78,0,0,0,54.3,68.6Z"/><path class="cls-1" d="M85.6,53.1a2.37,2.37,0,0,0-4-1.7l-6.5,6.5c-1.9,1.9-3.8,3.8-5.6,5.7-.3-.1-.3-.1-.4-.2-2-2-4-4-6.1-6A4.67,4.67,0,1,0,56.4,64c3.2,3.3,6.4,6.5,9.7,9.7a4.8,4.8,0,0,0,6.6,0c1.4-1.3,2.7-2.7,4-4l7.4-7.4a5.09,5.09,0,0,0,1.5-3.5Z"/></svg>